<?xml version="1.0" encoding="UTF-8" standalone="no"?>
<svg width="100%" height="100%" viewBox="0 0 24 24" version="1.1" xmlns="http://www.w3.org/2000/svg" xml:space="preserve" style="stroke-linejoin:round;stroke-miterlimit:2;fill:white;opacity:.7">
    <g transform="matrix(0.820673,-0.820673,0.820673,0.820673,-8.18774,10.6873)">
        <path d="M18.277,6.321C17.847,5.891 17.151,5.891 16.721,6.321L15,8.043L14.692,7.735C13.524,6.567 11.476,6.567 10.308,7.735L6.136,11.907C5.552,12.491 5.23,13.27 5.23,14.099C5.23,14.928 5.552,15.707 6.136,16.291L6.444,16.599L4.722,18.321C4.292,18.751 4.292,19.447 4.722,19.877C4.937,20.092 5.218,20.199 5.5,20.199C5.782,20.199 6.063,20.092 6.278,19.877L8,18.155L8.308,18.463C8.892,19.047 9.67,19.369 10.5,19.369C11.33,19.369 12.108,19.047 12.692,18.463L16.864,14.291C17.448,13.707 17.77,12.929 17.77,12.099C17.77,11.269 17.448,10.491 16.864,9.907L16.556,9.599L18.278,7.877C18.707,7.447 18.707,6.751 18.277,6.321ZM15.308,12.735L11.136,16.907C10.968,17.075 10.734,17.16 10.5,17.16C10.266,17.16 10.032,17.076 9.864,16.907L9.556,16.599L10.278,15.877C10.708,15.447 10.708,14.751 10.278,14.321C10.063,14.106 9.782,13.999 9.5,13.999C9.218,13.999 8.937,14.106 8.722,14.321L8,15.043L7.692,14.735C7.524,14.567 7.431,14.34 7.431,14.099C7.431,13.858 7.524,13.631 7.692,13.463L11.864,9.291C12.032,9.123 12.258,9.03 12.5,9.03C12.742,9.03 12.968,9.123 13.136,9.291L13.444,9.599L12.722,10.321C12.292,10.751 12.292,11.447 12.722,11.877C12.937,12.092 13.218,12.199 13.5,12.199C13.782,12.199 14.063,12.092 14.278,11.877L15,11.155L15.308,11.463C15.476,11.631 15.569,11.858 15.569,12.099C15.569,12.34 15.476,12.567 15.308,12.735Z" style="fill-rule:nonzero;"/>
    </g>
</svg>
