<svg width="64" height="64" xmlns="http://www.w3.org/2000/svg" version="1.1">
    <path id="Rectangle" fill="white" d="m23.9671,10.0921c2.01656,0 3.65132,1.63475 3.65132,3.65132l0,36.51316c0,2.01656 -1.63475,3.65132 -3.65132,3.65132c-2.01656,0 -3.65132,-1.63475 -3.65132,-3.65132l0,-36.51316c0,-2.01656 1.63475,-3.65132 3.65132,-3.65132z"/>
    <path id="Rectangle" fill="white" d="m40.03289,10.0921c2.01656,0 3.65132,1.63475 3.65132,3.65132l0,36.51316c0,2.01656 -1.63475,3.65132 -3.65132,3.65132c-2.01656,0 -3.65132,-1.63475 -3.65132,-3.65132l0,-36.51316c0,-2.01656 1.63475,-3.65132 3.65132,-3.65132z"/>
</svg>
