<svg width="32" height="32" xmlns="http://www.w3.org/2000/svg" xml:space="preserve">
    <path transform="translate(-16.3333, -16.3333) scale(2)" id="_15-Right" fill="white" d="m20.42168,14.37698l-6.198,-4.132c-0.613,-0.409 -1.402,-0.447 -2.053,-0.099c-0.65,0.348 -1.056,1.026 -1.056,1.764l0,8.262c0,0.738 0.406,1.416 1.056,1.764c0.651,0.348 1.44,0.31 2.053,-0.099l6.198,-4.132c0.556,-0.371 0.89,-0.995 0.89,-1.664c0,-0.669 -0.334,-1.293 -0.89,-1.664zm-7.307,-2.467c0,0 6.197,4.131 6.197,4.131c0,0 -6.197,4.131 -6.197,4.131c0,0 0,-8.262 0,-8.262z"/>
</svg>
