<?xml version="1.0" ?>
<svg style="enable-background:new 0 0 24 24;" version="1.1" viewBox="0 0 24 24" xmlns="http://www.w3.org/2000/svg">
    <path d="M16.5,6.7C16.7,6.8,16.8,7,17,7.1c0.1,0.1,0.1,0.1,0.2,0.2l-1.8,0.3c-0.5,0.1-0.9,0.6-0.8,1.2c0.1,0.5,0.5,0.8,1,0.8   c0.1,0,0.1,0,0.2,0l4.2-0.8c0.5-0.1,0.9-0.6,0.8-1.2L20,3.5c-0.1-0.5-0.6-0.9-1.2-0.8c-0.5,0.1-0.9,0.6-0.8,1.2l0.3,1.7   c0,0,0,0,0,0c-0.2-0.2-0.5-0.5-0.7-0.6c0,0,0,0-0.1,0c-0.1-0.1-0.2-0.2-0.3-0.2c-0.2-0.2-0.4-0.3-0.7-0.5c0,0,0,0,0,0   c-0.3-0.2-0.6-0.3-0.9-0.5l-0.1,0c-0.1-0.1-0.3-0.1-0.5-0.2c-0.4-0.1-0.8-0.2-1.1-0.3c-0.2,0-0.4-0.1-0.6-0.1c0,0-0.1,0-0.1,0   c-0.1,0-0.3,0-0.4,0c-0.2,0-0.5,0-0.7,0c-5,0-9,4-9,9s4,9,9,9s9-4,9-9c0-0.6-0.4-1-1-1s-1,0.4-1,1c0,3.9-3.1,7-7,7s-7-3.1-7-7   s3.1-7,7-7c0.2,0,0.5,0,0.7,0c0.2,0,0.3,0,0.5,0.1c0.2,0,0.3,0.1,0.5,0.1c0.1,0,0.2,0.1,0.3,0.1c0.7,0.2,1.4,0.5,2,1   c0.1,0.1,0.2,0.1,0.3,0.2C16.4,6.5,16.5,6.6,16.5,6.7z" fill="white"/>
</svg>
